<?xml version="1.0" encoding="UTF-8" standalone="no"?>
<!-- Created with Inkscape (http://www.inkscape.org/) -->

<svg
   xmlns:dc="http://purl.org/dc/elements/1.1/"
   xmlns:cc="http://creativecommons.org/ns#"
   xmlns:rdf="http://www.w3.org/1999/02/22-rdf-syntax-ns#"
   xmlns:svg="http://www.w3.org/2000/svg"
   xmlns="http://www.w3.org/2000/svg"
   xmlns:xlink="http://www.w3.org/1999/xlink"
   xmlns:sodipodi="http://sodipodi.sourceforge.net/DTD/sodipodi-0.dtd"
   xmlns:inkscape="http://www.inkscape.org/namespaces/inkscape"
   id="svg2985"
   version="1.1"
   inkscape:version="0.48.0 r9654"
   width="500"
   height="500"
   sodipodi:docname="logo_final.svg">
  <title
     id="title4762">Reaktor23 Logo</title>
  <metadata
     id="metadata2991">
    <rdf:RDF>
      <cc:Work
         rdf:about="">
        <dc:format>image/svg+xml</dc:format>
        <dc:type
           rdf:resource="http://purl.org/dc/dcmitype/StillImage" />
        <dc:title>Reaktor23 Logo</dc:title>
        <dc:date>28.10.2011</dc:date>
        <dc:creator>
          <cc:Agent>
            <dc:title>Bouni - Reaktor23</dc:title>
          </cc:Agent>
        </dc:creator>
        <dc:rights>
          <cc:Agent>
            <dc:title />
          </cc:Agent>
        </dc:rights>
        <dc:contributor>
          <cc:Agent>
            <dc:title>Bouni</dc:title>
          </cc:Agent>
        </dc:contributor>
      </cc:Work>
    </rdf:RDF>
  </metadata>
  <defs
     id="defs2989">
    <linearGradient
       id="linearGradient3803">
      <stop
         style="stop-color:#8bf22f;stop-opacity:1;"
         offset="0"
         id="stop3805" />
      <stop
         style="stop-color:#26b01f;stop-opacity:1;"
         offset="1"
         id="stop3807" />
    </linearGradient>
    <linearGradient
       inkscape:collect="always"
       xlink:href="#linearGradient3803"
       id="linearGradient4663"
       x1="179.92592"
       y1="175.62962"
       x2="166.96297"
       y2="157.11111"
       gradientUnits="userSpaceOnUse"
       gradientTransform="matrix(1.04,0,0,1.08,-32.16,16.32)" />
    <linearGradient
       inkscape:collect="always"
       xlink:href="#linearGradient3803"
       id="linearGradient4739"
       gradientUnits="userSpaceOnUse"
       gradientTransform="matrix(1.04,0,0,1.08,-32.16,16.32)"
       x1="179.92592"
       y1="175.62962"
       x2="166.96297"
       y2="157.11111" />
    <linearGradient
       inkscape:collect="always"
       xlink:href="#linearGradient3803"
       id="linearGradient4743"
       gradientUnits="userSpaceOnUse"
       gradientTransform="matrix(1.04,0,0,1.08,-32.16,16.32)"
       x1="179.92592"
       y1="175.62962"
       x2="166.96297"
       y2="157.11111" />
    <linearGradient
       inkscape:collect="always"
       xlink:href="#linearGradient3803"
       id="linearGradient4747"
       gradientUnits="userSpaceOnUse"
       gradientTransform="matrix(1.04,0,0,1.08,-32.16,16.32)"
       x1="179.92592"
       y1="175.62962"
       x2="166.96297"
       y2="157.11111" />
    <linearGradient
       inkscape:collect="always"
       xlink:href="#linearGradient3803"
       id="linearGradient4760"
       gradientUnits="userSpaceOnUse"
       gradientTransform="matrix(1.04,0,0,1.08,-32.16,16.32)"
       x1="179.92592"
       y1="175.62962"
       x2="166.96297"
       y2="157.11111" />
    <linearGradient
       inkscape:collect="always"
       xlink:href="#linearGradient3803"
       id="linearGradient3780"
       gradientUnits="userSpaceOnUse"
       gradientTransform="matrix(1.04,0,0,1.08,-152.12875,-141.68)"
       x1="179.92592"
       y1="175.62962"
       x2="166.96297"
       y2="157.11111" />
    <linearGradient
       inkscape:collect="always"
       xlink:href="#linearGradient3803"
       id="linearGradient3931"
       gradientUnits="userSpaceOnUse"
       gradientTransform="matrix(9.2125981,0,0,9.5729378,-1383.307,-1362.4607)"
       x1="179.92592"
       y1="175.62962"
       x2="166.96297"
       y2="157.11111" />
  </defs>
  <sodipodi:namedview
     pagecolor="#ffffff"
     bordercolor="#666666"
     borderopacity="1"
     objecttolerance="10"
     gridtolerance="10"
     guidetolerance="10"
     inkscape:pageopacity="0"
     inkscape:pageshadow="2"
     inkscape:window-width="1280"
     inkscape:window-height="962"
     id="namedview2987"
     showgrid="true"
     inkscape:zoom="0.35355339"
     inkscape:cx="-18.187362"
     inkscape:cy="396.33175"
     inkscape:window-x="-8"
     inkscape:window-y="-8"
     inkscape:window-maximized="1"
     inkscape:current-layer="svg2985"
     showguides="true"
     inkscape:guide-bbox="true"
     units="mm"
     inkscape:snap-grids="true"
     inkscape:snap-object-midpoints="true"
     inkscape:snap-center="true">
    <inkscape:grid
       type="xygrid"
       id="grid2991"
       empspacing="2"
       visible="true"
       enabled="true"
       snapvisiblegridlinesonly="true"
       spacingx="10mm"
       spacingy="10mm"
       originx="0px"
       originy="0mm"
       units="mm" />
  </sodipodi:namedview>
  <g
     id="g3910"
     transform="matrix(0.9230761,0,0,0.9230761,2.7264828,6.8893384)">
    <path
       id="rect4647"
       d="m 35.4375,35.1875 0,35.46875 35.4375,0 0,-35.46875 -35.4375,0 z m 70.875,0 0,35.46875 35.40625,0 35.4375,0 0,-35.46875 -70.84375,0 z m 70.84375,35.46875 0,70.90625 -35.4375,0 0,35.4375 35.4375,0 0,106.375 -0.28125,0 -35.15625,0 0,35.46875 -35.40625,0 0,35.4375 70.84375,0 0,35.46875 70.875,0 0,-35.40625 35.4375,0 0,35.40625 35.4375,0 0,-35.40625 35.4375,0 0,35.40625 106.28125,0 0,-35.40625 35.4375,0 0,-141.875 0,-35.46875 -35.4375,0 0,-35.4375 0,-35.46875 -35.4375,0 0,35.46875 -35.4375,0 -35.40625,0 0,-35.46875 -35.4375,0 0,-35.4375 -35.4375,0 0,35.4375 -35.4375,0 0,-35.4375 -70.875,0 z m 177.1875,35.4375 35.40625,0 35.4375,0 0,-35.4375 -35.4375,0 0,-35.46875 -35.40625,0 0,70.90625 z M 460.625,389.75 l 0,35.4375 35.4375,0 0,-35.4375 -35.4375,0 z m -354.3125,-70.90625 0,-35.46875 -35.4375,0 0,35.46875 35.4375,0 z m -35.4375,0 -35.4375,0 0,70.90625 35.4375,0 0,-35.46875 0,-35.4375 z M 141.71875,177 70.875,177 l 0,35.46875 70.84375,0 0,-35.46875 z M 70.875,106.09375 l 0,35.46875 35.4375,0 0,-35.46875 -35.4375,0 z m 177.15625,35.46875 70.875,0 0,35.4375 -70.875,0 0,35.46875 -35.4375,0 0,-35.46875 35.4375,0 0,-35.4375 z M 354.34375,177 l 35.40625,0 0,35.46875 -35.40625,0 0,-35.46875 z m -70.875,71.03125 70.875,0 0,35.4375 -70.875,0 0,-35.4375 z m -70.875,35.34375 35.4375,0 0,35.46875 -35.4375,0 0,-35.46875 z m 212.59375,0.0937 35.4375,0 0,35.4375 -35.4375,0 0,-35.4375 z m -389.75,141.71875 0,35.46875 35.4375,0 0,-35.46875 -35.4375,0 z m 106.28125,88.625 0,0.0312 70.875,0 0,-0.0312 -70.875,0 z"
       style="fill:url(#linearGradient3931);fill-opacity:1;fill-rule:nonzero;stroke:none"
       inkscape:connector-curvature="0" />
    <g
       transform="matrix(0.76923078,0,0,0.76923078,64.042991,-3.785158)"
       id="g3875">
      <g
         inkscape:transform-center-x="-27.80856"
         inkscape:transform-center-y="4.0911615"
         style="font-size:62.40242386px;font-style:normal;font-variant:normal;font-weight:bold;font-stretch:normal;line-height:166.99999571%;letter-spacing:-5.45000076px;word-spacing:0px;fill:#000000;fill-opacity:1;stroke:none;font-family:Stencil;-inkscape-font-specification:Khmer UI Bold"
         id="text2995"
         transform="matrix(2.285167,0,0,2.285167,-316.46481,84.115127)">
        <path
           inkscape:connector-curvature="0"
           style="text-align:start;line-height:166.99999571%;writing-mode:lr-tb;text-anchor:start;font-family:Utsaah;-inkscape-font-specification:Utsaah Bold"
           d="m 293.0625,195.46875 c -2.60011,3e-5 -4.91556,0.39687 -6.90625,1.25 -1.47816,0.61926 -2.82007,1.58616 -4.0625,2.84375 l 0,-3.5625 -21.71875,0 -8.6875,0 -13.0625,14.1875 0,-14.1875 -6.4375,0 0,27.25 -10.90625,-27.25 -6.8125,0 -10.375,26.59375 -16.78125,0 0,-8.71875 16.0625,0 0,-5.34375 -16.0625,0 0,-7.09375 17.25,0 0,-5.4375 -23.71875,0 0,28.9375 -1.96875,-3.1875 c -1.54384,-2.47821 -2.78359,-4.21245 -3.6875,-5.1875 -0.90397,-0.97502 -2.06715,-1.87495 -3.46875,-2.6875 2.80321,-0.40625 4.93195,-1.37336 6.34375,-2.9375 1.41175,-1.56411 2.12497,-3.54051 2.125,-5.9375 -3e-5,-1.88911 -0.47187,-3.58976 -1.40625,-5.0625 -0.93444,-1.47269 -2.17496,-2.48354 -3.71875,-3.0625 -1.54383,-0.57889 -4.03582,-0.87497 -7.46875,-0.875 L 154,196 l 0,32 6.46875,0 0,-13.34375 1.3125,0 c 1.48286,1e-5 2.55933,0.11016 3.25,0.34375 0.69063,0.23362 1.32809,0.66248 1.9375,1.3125 0.60938,0.65003 1.76086,2.25147 3.40625,4.75 l 4.6875,6.9375 5.78125,0 1.90625,0 19.25,0 3.15625,0 3.6875,0 2.625,-7.25 12.8125,0 2.78125,7.25 7.03125,0 4.53125,0 0,-9.65625 5.25,-5.375 8.8125,15.03125 8.34375,0 -12.71875,-19.53125 8.34375,-8.625 0,1.59375 9.5,0 0,26.5625 6.4375,0 0,-26.5625 7.9375,0 c -0.56913,0.80397 -1.07115,1.65372 -1.46875,2.5625 -0.97504,2.21417 -1.46875,4.94833 -1.46875,8.21875 0,5.07834 1.41551,9.06395 4.21875,11.96875 2.80322,2.9048 6.59043,4.34375 11.34375,4.34375 4.71266,0 8.44674,-1.42879 11.25,-4.34375 1.9272,-2.00403 3.17898,-4.56003 3.78125,-7.625 l 0,11.4375 6.46875,0 0,-13.34375 1.3125,0 c 1.48286,1e-5 2.55934,0.11016 3.25,0.34375 0.69064,0.23362 1.35933,0.66248 1.96875,1.3125 0.60938,0.65003 1.72961,2.25147 3.375,4.75 L 329.25,228 l 7.71875,0 -3.90625,-6.25 c -1.54384,-2.47821 -2.78358,-4.21245 -3.6875,-5.1875 -0.90396,-0.97502 -2.03591,-1.87495 -3.4375,-2.6875 2.80321,-0.40625 4.9007,-1.37336 6.3125,-2.9375 1.41174,-1.56411 2.12497,-3.54051 2.125,-5.9375 -3e-5,-1.88911 -0.47187,-3.58976 -1.40625,-5.0625 -0.93444,-1.47269 -2.17497,-2.48354 -3.71875,-3.0625 -1.54383,-0.57889 -4.03583,-0.87497 -7.46875,-0.875 l -13.59375,0 0,11.5 c -0.60998,-3.08926 -1.86746,-5.64843 -3.8125,-7.65625 -2.83373,-2.92508 -6.59984,-4.37497 -11.3125,-4.375 z M 293.15625,201 c 2.66102,3e-5 4.77023,0.8898 6.375,2.6875 1.60472,1.79775 2.40623,4.54206 2.40625,8.21875 -2e-5,3.69703 -0.81324,6.4851 -2.46875,8.34375 -1.65555,1.85867 -3.75304,2.78126 -6.3125,2.78125 -2.5798,1e-5 -4.73041,-0.94367 -6.40625,-2.8125 -1.67585,-1.86882 -2.50001,-4.6139 -2.5,-8.25 -10e-6,-3.67668 0.81242,-6.43194 2.4375,-8.25 1.62505,-1.81802 3.78738,-2.71872 6.46875,-2.71875 z m -132.6875,0.4375 5.0625,0 c 2.6204,0 4.17965,0.0328 4.6875,0.0937 1.05628,0.18284 1.85855,0.58984 2.4375,1.25 0.57891,0.66021 0.87497,1.51717 0.875,2.59375 -3e-5,0.95475 -0.21953,1.7664 -0.65625,2.40625 -0.43675,0.63989 -1.04061,1.0797 -1.8125,1.34375 -0.77192,0.26409 -2.70459,0.40627 -5.8125,0.40625 l -4.78125,0 0,-8.09375 z m 154.1875,0 5.0625,0 c 2.6204,0 4.17965,0.0328 4.6875,0.0937 1.05627,0.18284 1.8898,0.58984 2.46875,1.25 0.57891,0.66021 0.84373,1.51717 0.84375,2.59375 -2e-5,0.95475 -0.21954,1.7664 -0.65625,2.40625 -0.43676,0.63989 -1.04062,1.0797 -1.8125,1.34375 -0.77193,0.26409 -2.70458,0.40627 -5.8125,0.40625 l -4.78125,0 0,-8.09375 z m -96.875,2.03125 4.40625,11.875 -8.6875,0 4.28125,-11.875 z"
           transform="translate(-0.0078125,0.00390625)"
           id="path3009" />
      </g>
      <g
         inkscape:transform-center-x="-2.6902929"
         inkscape:transform-center-y="-1.8297926"
         style="font-size:23.57038689px;font-style:normal;font-weight:normal;line-height:125%;letter-spacing:-2.5999999px;word-spacing:0px;fill:#000000;fill-opacity:1;stroke:none;font-family:Sans"
         id="text3023"
         transform="matrix(1.9656507,0,0,1.9656507,28.353568,452.91715)">
        <path
           inkscape:connector-curvature="0"
           d="m 227.2484,47.123491 0,3.003844 -11.33634,0 c 0.12276,-1.135552 0.49105,-2.21164 1.10486,-3.228269 0.61381,-1.016622 1.82609,-2.365089 3.63684,-4.045405 1.4578,-1.358051 2.35166,-2.278769 2.68159,-2.762155 0.44501,-0.66751 0.66751,-1.327358 0.66752,-1.979544 -1e-5,-0.721217 -0.19374,-1.275566 -0.5812,-1.663048 -0.38748,-0.387455 -0.92264,-0.581189 -1.6055,-0.581203 -0.6752,1.4e-5 -1.21229,0.203339 -1.61126,0.609976 -0.39898,0.406664 -0.62916,1.081856 -0.69054,2.02558 l -3.22251,-0.322252 c 0.19181,-1.780041 0.79412,-3.057536 1.80691,-3.832489 1.01278,-0.774922 2.27877,-1.16239 3.79796,-1.162407 1.66496,1.7e-5 2.97314,0.448867 3.92456,1.34655 0.9514,0.897715 1.4271,2.014085 1.42711,3.349113 -1e-5,0.759604 -0.1362,1.482751 -0.40856,2.169442 -0.27239,0.686712 -0.70398,1.406023 -1.29476,2.157934 -0.39132,0.49873 -1.0972,1.216122 -2.11766,2.152179 -1.02047,0.936068 -1.66689,1.557552 -1.93926,1.864454 -0.27238,0.30691 -0.49297,0.606143 -0.66176,0.8977 z"
           style="font-variant:normal;font-weight:bold;font-stretch:normal;text-align:start;line-height:125%;writing-mode:lr-tb;text-anchor:start;font-family:Sans;-inkscape-font-specification:Sans Bold"
           id="path3036" />
        <path
           inkscape:connector-curvature="0"
           d="m 226.73153,45.650342 3.13044,-0.379796 c 0.0997,0.79796 0.36829,1.407935 0.80563,1.829927 0.43734,0.421999 0.96675,0.632997 1.58824,0.632994 0.66751,3e-6 1.22953,-0.253195 1.68606,-0.759592 0.45652,-0.506392 0.68478,-1.189257 0.68479,-2.048598 -1e-5,-0.813296 -0.21868,-1.457798 -0.65601,-1.933509 -0.43735,-0.475697 -0.9706,-0.713549 -1.59975,-0.713556 -0.41433,7e-6 -0.90922,0.08057 -1.48466,0.241688 l 0.35678,-2.635556 c 0.87468,0.02303 1.5422,-0.16687 2.00256,-0.569694 0.46035,-0.402803 0.69053,-0.93797 0.69054,-1.605503 -1e-5,-0.567763 -0.16881,-1.020449 -0.50639,-1.358059 -0.33761,-0.337583 -0.78646,-0.506381 -1.34656,-0.506395 -0.55243,1.4e-5 -1.0243,0.19183 -1.4156,0.575449 -0.39131,0.383646 -0.62916,0.943749 -0.71356,1.680311 l -2.98082,-0.506395 c 0.20716,-1.02045 0.51982,-1.835668 0.93798,-2.445658 0.41816,-0.60996 1.00128,-1.089501 1.74937,-1.438622 0.74807,-0.349089 1.58631,-0.523642 2.51471,-0.523659 1.58823,1.7e-5 2.86189,0.506411 3.82098,1.519185 0.79027,0.828661 1.18541,1.764724 1.18542,2.808191 -1e-5,1.480833 -0.80947,2.66242 -2.42839,3.544765 0.96674,0.20717 1.73976,0.671365 2.31906,1.392586 0.57927,0.721237 0.86891,1.592082 0.86892,2.612538 -1e-5,1.480826 -0.54093,2.742976 -1.62276,3.786454 -1.08185,1.043481 -2.4284,1.565221 -4.03965,1.565221 -1.52687,0 -2.79285,-0.439259 -3.79797,-1.317778 -1.00511,-0.878517 -1.58824,-2.027495 -1.74936,-3.446939 z"
           style="font-variant:normal;font-weight:bold;font-stretch:normal;text-align:start;line-height:125%;writing-mode:lr-tb;text-anchor:start;font-family:Sans;-inkscape-font-specification:Sans Bold"
           id="path3038" />
      </g>
      <g
         style="font-size:18px;font-style:normal;font-variant:normal;font-weight:normal;font-stretch:normal;text-align:start;line-height:125%;letter-spacing:8.21000004px;word-spacing:0px;writing-mode:lr-tb;text-anchor:start;fill:#000000;fill-opacity:1;stroke:none;font-family:Kh Metal Chrieng;-inkscape-font-specification:Kh Metal Chrieng"
         id="text3027"
         transform="matrix(2.5154335,0,0,2.5154335,-50.170124,430.22821)">
        <path
           inkscape:connector-curvature="0"
           d="m 35.349548,77.90918 0,6.09082 -1.318359,0 0,-13.183594 1.318359,0 0,5.774414 6.644532,0 0,-5.774414 1.318359,0 0,13.183594 -1.318359,0 0,-6.09082 z"
           id="path3013" />
        <path
           inkscape:connector-curvature="0"
           d="m 60.153297,78.550781 c -0.509772,0.210943 -1.168951,0.372076 -1.977539,0.483399 -1.095707,0.152348 -1.918948,0.407231 -2.469726,0.764648 -0.550784,0.357426 -0.826174,0.817386 -0.826172,1.379883 -2e-6,0.498049 0.161131,0.873049 0.483398,1.125 0.322263,0.251955 0.805661,0.377931 1.450196,0.37793 0.626948,10e-7 1.218745,-0.158202 1.77539,-0.47461 0.556635,-0.316404 1.078119,-0.788083 1.564453,-1.415039 z m -6.591796,-2.021484 c -10e-7,-0.849601 0.331053,-1.488272 0.993164,-1.916016 0.656247,-0.421865 1.643551,-0.632802 2.961914,-0.632812 1.318353,1e-5 2.308587,0.225595 2.970703,0.676758 0.656242,0.45704 0.984366,1.139656 0.984375,2.047851 l 0,7.294922 -1.31836,0 0,-1.634766 c -0.486334,0.544923 -1.007818,0.952149 -1.564453,1.22168 C 58.032199,83.862305 57.440402,84 56.813454,84 c -1.083987,0 -1.89551,-0.234375 -2.434571,-0.703125 -0.544922,-0.474608 -0.817383,-1.180662 -0.817382,-2.118164 -10e-7,-0.914059 0.36621,-1.64648 1.098632,-2.197266 0.72656,-0.556635 1.819333,-0.928705 3.278321,-1.116211 1.476556,-0.199212 2.214836,-0.468743 2.214843,-0.808593 l 0,-0.351563 c -7e-6,-0.468742 -0.219733,-0.820304 -0.659179,-1.054687 -0.439459,-0.234367 -1.098639,-0.351554 -1.977539,-0.351563 -0.87891,9e-6 -1.538089,0.102548 -1.977539,0.307617 -0.439456,0.205087 -0.659182,0.512704 -0.65918,0.922852 z"
           id="path3015" />
        <path
           inkscape:connector-curvature="0"
           d="m 79.639664,81.292969 c -0.17579,0.574221 -0.424813,1.057619 -0.747071,1.450195 C 78.195321,83.581055 77.149423,84 75.754898,84 c -1.388675,0 -2.431643,-0.418945 -3.128906,-1.256836 -0.697267,-0.832029 -1.045899,-2.083004 -1.045899,-3.75293 0,-1.669915 0.348632,-2.92382 1.045899,-3.761718 0.697263,-0.832022 1.740231,-1.248037 3.128906,-1.248047 1.394525,1e-5 2.440423,0.416025 3.137695,1.248047 0.134758,0.16993 0.257805,0.35743 0.369141,0.5625 l -1.151367,0.667968 c -0.0586,-0.0996 -0.117195,-0.190422 -0.175781,-0.272461 -0.457038,-0.591788 -1.1836,-0.887686 -2.179688,-0.887695 -0.996097,9e-6 -1.71973,0.295907 -2.170898,0.887695 -0.457034,0.591805 -0.685549,1.526374 -0.685547,2.803711 -2e-6,1.271488 0.228513,2.203128 0.685547,2.794922 0.451168,0.597658 1.174801,0.896486 2.170898,0.896485 0.996088,10e-7 1.72265,-0.298827 2.179688,-0.896485 0.181633,-0.234372 0.325188,-0.527341 0.430664,-0.878906 l 1.274414,0.386719 z"
           id="path3017" />
        <path
           inkscape:connector-curvature="0"
           d="m 90.855526,78.445312 4.412109,-4.464843 1.854493,0 -4.122071,4.166015 L 97.429745,84 l -1.652344,0 -3.708984,-4.904297 -1.212891,1.230469 0,3.673828 -1.318359,0 0,-13.183594 1.318359,0 z"
           id="path3019" />
        <path
           inkscape:connector-curvature="0"
           d="m 107.67001,79.209961 c 0.0293,1.16016 0.25781,2.018557 0.68555,2.575195 0.45117,0.597658 1.1748,0.896486 2.1709,0.896485 0.99609,10e-7 1.72265,-0.298827 2.17969,-0.896485 0.18163,-0.240232 0.32811,-0.53613 0.43945,-0.887695 l 1.37109,0 c -0.16993,0.750002 -0.45411,1.365236 -0.85254,1.845703 C 112.96688,83.581055 111.92098,84 110.52646,84 c -1.38868,0 -2.43164,-0.41748 -3.12891,-1.252441 -0.69726,-0.834959 -1.0459,-2.087399 -1.0459,-3.757325 0,-1.669915 0.34864,-2.922355 1.0459,-3.757324 0.69727,-0.834951 1.74023,-1.252431 3.12891,-1.252441 1.39452,1e-5 2.43896,0.41749 3.1333,1.252441 0.69433,0.834969 1.04149,2.087409 1.0415,3.757324 l 0,0.219727 z m 5.64258,-1.318359 c -0.0938,-0.732415 -0.2959,-1.300774 -0.60644,-1.705079 -0.45704,-0.591788 -1.1836,-0.887686 -2.17969,-0.887695 -0.9961,9e-6 -1.71973,0.295907 -2.1709,0.887695 -0.31641,0.404305 -0.52149,0.972664 -0.61523,1.705079 z"
           id="path3021" />
        <path
           inkscape:connector-curvature="0"
           d="m 129.24818,75.298828 c -0.86133,9e-6 -1.604,0.354501 -2.22802,1.063477 -0.62403,0.708991 -0.93604,1.204108 -0.93604,1.485351 l 0,6.152344 -1.31836,0 0,-10.019531 1.31836,0 0,1.731445 c 0.97265,-1.154287 2.02734,-1.731435 3.16406,-1.731445 z"
           id="path3023" />
        <path
           inkscape:connector-curvature="0"
           d="m 142.2658,84 c -2.63672,0 -3.95508,-1.057616 -3.95508,-3.172852 l 1.31836,0 c 0,1.23633 0.87891,1.854494 2.63672,1.854493 1.75781,10e-7 2.63671,-0.585936 2.63672,-1.757813 -1e-5,-0.626949 -0.56251,-1.08691 -1.6875,-1.379883 l -1.40625,-0.342773 c -2.15625,-0.521479 -3.23438,-1.412103 -3.23438,-2.671875 0,-1.69921 1.23047,-2.548818 3.69141,-2.548828 2.46093,1e-5 3.6914,0.943368 3.69141,2.830078 l -1.31836,0 c -1e-5,-1.007804 -0.79102,-1.51171 -2.37305,-1.511719 -1.58203,9e-6 -2.37305,0.410165 -2.37305,1.230469 0,0.62696 0.76465,1.136725 2.29395,1.529297 l 1.40625,0.342773 c 1.75194,0.42188 2.62792,1.2627 2.62793,2.522461 C 146.22087,82.97461 144.90251,84 142.2658,84 z"
           id="path3025" />
        <path
           inkscape:connector-curvature="0"
           d="m 157.48068,75.448242 c 0.5625,-0.978506 1.4414,-1.467763 2.63672,-1.467773 2.63671,1e-5 3.95507,1.66993 3.95508,5.009765 C 164.07247,82.33008 162.75411,84 160.1174,84 c -1.19532,0 -2.07422,-0.489257 -2.63672,-1.467773 l 0,4.631835 -1.31836,0 0,-13.183593 1.31836,0 z m 0.67237,6.257813 c 0.44823,0.650392 1.10302,0.975587 1.96435,0.975586 1.75781,10e-7 2.63671,-1.230467 2.63672,-3.691407 -1e-5,-2.46093 -0.87891,-3.691397 -2.63672,-3.691406 -0.86133,9e-6 -1.51612,0.326669 -1.96435,0.979981 -0.44825,0.653327 -0.67237,1.557135 -0.67237,2.711425 0,1.16016 0.22412,2.065433 0.67237,2.715821 z"
           id="path3027" />
        <path
           inkscape:connector-curvature="0"
           d="m 180.09595,78.550781 c -0.50978,0.210943 -1.16895,0.372076 -1.97754,0.483399 -1.09571,0.152348 -1.91895,0.407231 -2.46973,0.764648 -0.55078,0.357426 -0.82617,0.817386 -0.82617,1.379883 0,0.498049 0.16113,0.873049 0.4834,1.125 0.32226,0.251955 0.80566,0.377931 1.45019,0.37793 0.62695,10e-7 1.21875,-0.158202 1.77539,-0.47461 0.55664,-0.316404 1.07812,-0.788083 1.56446,-1.415039 z m -6.5918,-2.021484 c 0,-0.849601 0.33105,-1.488272 0.99316,-1.916016 0.65625,-0.421865 1.64356,-0.632802 2.96192,-0.632812 1.31835,1e-5 2.30859,0.225595 2.9707,0.676758 0.65624,0.45704 0.98437,1.139656 0.98438,2.047851 l 0,7.294922 -1.31836,0 0,-1.634766 c -0.48634,0.544923 -1.00782,0.952149 -1.56446,1.22168 C 177.97485,83.862305 177.38305,84 176.7561,84 c -1.08398,0 -1.89551,-0.234375 -2.43457,-0.703125 -0.54492,-0.474608 -0.81738,-1.180662 -0.81738,-2.118164 0,-0.914059 0.36621,-1.64648 1.09863,-2.197266 0.72656,-0.556635 1.81934,-0.928705 3.27832,-1.116211 1.47656,-0.199212 2.21484,-0.468743 2.21485,-0.808593 l 0,-0.351563 c -10e-6,-0.468742 -0.21974,-0.820304 -0.65918,-1.054687 -0.43946,-0.234367 -1.09864,-0.351554 -1.97754,-0.351563 -0.87891,9e-6 -1.53809,0.102548 -1.97754,0.307617 -0.43946,0.205087 -0.65918,0.512704 -0.65918,0.922852 z"
           id="path3029" />
        <path
           inkscape:connector-curvature="0"
           d="m 199.58232,81.292969 c -0.17579,0.574221 -0.42481,1.057619 -0.74707,1.450195 C 198.13798,83.581055 197.09208,84 195.69756,84 c -1.38868,0 -2.43165,-0.418945 -3.12891,-1.256836 -0.69727,-0.832029 -1.0459,-2.083004 -1.0459,-3.75293 0,-1.669915 0.34863,-2.92382 1.0459,-3.761718 0.69726,-0.832022 1.74023,-1.248037 3.12891,-1.248047 1.39452,1e-5 2.44042,0.416025 3.13769,1.248047 0.13476,0.16993 0.25781,0.35743 0.36914,0.5625 l -1.15137,0.667968 c -0.0586,-0.0996 -0.11719,-0.190422 -0.17578,-0.272461 -0.45703,-0.591788 -1.1836,-0.887686 -2.17968,-0.887695 -0.9961,9e-6 -1.71973,0.295907 -2.1709,0.887695 -0.45704,0.591805 -0.68555,1.526374 -0.68555,2.803711 0,1.271488 0.22851,2.203128 0.68555,2.794922 0.45117,0.597658 1.1748,0.896486 2.1709,0.896485 0.99608,10e-7 1.72265,-0.298827 2.17968,-0.896485 0.18164,-0.234372 0.32519,-0.527341 0.43067,-0.878906 l 1.27441,0.386719 z"
           id="path3031" />
        <path
           inkscape:connector-curvature="0"
           d="m 210.12143,79.209961 c 0.0293,1.16016 0.25781,2.018557 0.68555,2.575195 0.45117,0.597658 1.1748,0.896486 2.17089,0.896485 0.99609,10e-7 1.72265,-0.298827 2.17969,-0.896485 0.18164,-0.240232 0.32812,-0.53613 0.43946,-0.887695 l 1.37109,0 c -0.16993,0.750002 -0.45411,1.365236 -0.85254,1.845703 C 215.4183,83.581055 214.3724,84 212.97787,84 c -1.38867,0 -2.43164,-0.41748 -3.1289,-1.252441 -0.69727,-0.834959 -1.0459,-2.087399 -1.0459,-3.757325 0,-1.669915 0.34863,-2.922355 1.0459,-3.757324 0.69726,-0.834951 1.74023,-1.252431 3.1289,-1.252441 1.39453,1e-5 2.43896,0.41749 3.13331,1.252441 0.69432,0.834969 1.04149,2.087409 1.0415,3.757324 l 0,0.219727 z m 5.64258,-1.318359 c -0.0938,-0.732415 -0.29591,-1.300774 -0.60645,-1.705079 -0.45704,-0.591788 -1.1836,-0.887686 -2.17969,-0.887695 -0.99609,9e-6 -1.71972,0.295907 -2.17089,0.887695 -0.31641,0.404305 -0.52149,0.972664 -0.61524,1.705079 z"
           id="path3033" />
      </g>
    </g>
  </g>
</svg>
